<svg aria-hidden="true" style="position: absolute; width: 0; height: 0; overflow: hidden;" version="1.1" xmlns="http://www.w3.org/2000/svg" xmlns:xlink="http://www.w3.org/1999/xlink">
<defs>
<symbol id="Comparison" viewBox="0 0 24 32">
<path fill="#499c54" style="fill: var(--color1, #499c54)" d="M0.187 17.116c-0.187-1.687-0.031-3.315 0.392-4.821 1.407-5.002 5.823-8.681 11.060-8.746v-3.27c0-0.181 0.218-0.279 0.361-0.168l6.458 4.944c0.106 0.084 0.106 0.253 0 0.331l-6.451 4.944c-0.149 0.11-0.361 0.013-0.361-0.169v-3.263c-3.444 0.058-6.383 2.271-7.647 5.398-0.48 1.181-0.722 2.485-0.654 3.854 0.093 1.882 0.772 3.613 1.843 5.015 0.573 0.746 0.436 1.836-0.305 2.4-0.704 0.539-1.688 0.389-2.229-0.324-1.326-1.726-2.211-3.828-2.466-6.125zM18.831 10.836c1.077 1.394 1.756 3.133 1.843 5.015 0.068 1.376-0.181 2.68-0.654 3.854-1.264 3.128-4.203 5.346-7.647 5.398v-3.263c0-0.181-0.218-0.279-0.361-0.168l-6.458 4.944c-0.106 0.084-0.106 0.254 0 0.331l6.452 4.944c0.149 0.11 0.361 0.013 0.361-0.168v-3.27c5.237-0.058 9.658-3.737 11.060-8.746 0.424-1.505 0.573-3.134 0.392-4.82-0.249-2.297-1.133-4.399-2.46-6.125-0.548-0.714-1.526-0.863-2.229-0.325-0.735 0.564-0.872 1.654-0.299 2.401z"></path>
</symbol>
<symbol id="Heart" viewBox="0 0 37 32">
<path fill="#c6517a" style="fill: var(--color2, #c6517a)" d="M31.531 1.303c-1.494-0.827-3.21-1.304-5.038-1.304-3.229 0-6.119 1.478-8.028 3.796-1.918-2.318-4.806-3.796-8.037-3.796-1.825 0-3.537 0.477-5.035 1.304-3.215 1.789-5.393 5.229-5.393 9.182 0 1.132 0.183 2.217 0.515 3.232 1.79 8.086 17.95 18.282 17.95 18.282s16.15-10.196 17.942-18.282c0.332-1.015 0.516-2.102 0.516-3.232 0-3.952-2.178-7.39-5.392-9.182z"></path>
</symbol>
<symbol id="Basket" viewBox="0 0 38 32">
<path fill="#ff5816" style="fill: var(--color3, #ff5816)" d="M18.006 9.258l16.996 0.002c2.785 0 1.721 2.833 1.697 2.896l-0 0.001-3.774 11.105c0 0-0.308 1.649-1.904 1.649h-19.044c-1.898 0-1.979-2.071-1.979-2.071l-2.387-17.748-6.13-1.549c-0.923-0.233-1.48-1.163-1.244-2.077s1.174-1.466 2.097-1.233l7.267 1.837c0.686 0.174 1.195 0.745 1.284 1.441l1.091 8.795 1.143 9.028h17.229l0.897-2.991-14.443-0.006c-0.788 0-1.428-0.633-1.428-1.414s0.639-1.414 1.428-1.414l15.289-0.003 0.954-3.198-15.037 0.001c-0.85 0-1.539-0.683-1.539-1.525s0.689-1.525 1.539-1.525zM13.904 25.922c-1.695 0-3.069 1.36-3.069 3.038 0 1.679 1.374 3.040 3.069 3.040s3.068-1.361 3.068-3.040c0-1.678-1.374-3.038-3.068-3.038zM27.295 25.922c-1.695 0-3.069 1.36-3.069 3.038 0 1.679 1.373 3.040 3.069 3.040 1.694 0 3.069-1.361 3.069-3.040 0-1.678-1.375-3.038-3.069-3.038z"></path>
</symbol>
<symbol id="Rub" viewBox="0 0 32 32">
<path fill="#445667" style="fill: var(--color4, #445667)" d="M26.606 5.393c2.714 2.715 4.393 6.465 4.393 10.607 0 4.143-1.679 7.893-4.394 10.606s-6.465 4.393-10.607 4.393c-4.141 0-7.892-1.679-10.606-4.393s-4.393-6.465-4.393-10.606c0-4.142 1.679-7.892 4.394-10.607 2.714-2.714 6.464-4.393 10.605-4.393s7.892 1.679 10.607 4.393zM32 16c0-4.419-1.792-8.419-4.687-11.314-2.896-2.896-6.896-4.687-11.314-4.687-4.419 0-8.419 1.792-11.313 4.686-2.896 2.896-4.687 6.896-4.687 11.314 0 4.419 1.792 8.419 4.686 11.314 2.896 2.896 6.896 4.686 11.314 4.686s8.418-1.791 11.314-4.686c2.896-2.896 4.687-6.896 4.687-11.314zM16 23.501c0-0.276-0.224-0.5-0.5-0.5h-1.501v-2.999h4.501c0.276 0 0.5-0.224 0.5-0.5s-0.224-0.5-0.5-0.5h-4.501v-9.5c0-0.276-0.224-0.5-0.5-0.5s-0.5 0.224-0.5 0.5v9.5h-1.5c-0.276 0-0.5 0.224-0.5 0.5s0.224 0.5 0.5 0.5h1.5v2.999h-1.499c-0.276 0-0.5 0.224-0.5 0.5s0.224 0.5 0.5 0.5h4c0.276 0 0.5-0.224 0.5-0.5zM17.501 18.002c-0.276 0-0.5-0.224-0.5-0.5s0.224-0.5 0.499-0.5l0.001 1z"></path>
</symbol>
<symbol id="search_button" viewBox="0 0 32 32">
<path d="M31.008 27.231l-7.58-6.447c-0.784-0.705-1.622-1.029-2.299-0.998 1.789-2.096 2.87-4.815 2.87-7.787 0-6.627-5.373-12-12-12s-12 5.373-12 12 5.373 12 12 12c2.972 0 5.691-1.081 7.787-2.87-0.031 0.677 0.293 1.515 0.998 2.299l6.447 7.58c1.104 1.226 2.907 1.33 4.007 0.23s0.997-2.903-0.23-4.007zM12 20c-4.418 0-8-3.582-8-8s3.582-8 8-8 8 3.582 8 8-3.582 8-8 8z"></path>
</symbol>
</defs>
</svg>
